<svg xmlns="http://www.w3.org/2000/svg" viewBox="0 0 512 512">
  <rect width="512" height="512" rx="108" fill="#173a34"/>
  <circle cx="256" cy="256" r="164" fill="#eef6f0"/>
  <circle cx="256" cy="256" r="132" fill="none" stroke="#2f8a63" stroke-width="28"/>
  <path d="M256 109a147 147 0 0 1 131 80" fill="none" stroke="#f0a43a" stroke-width="28" stroke-linecap="round"/>
  <path d="M256 149a107 107 0 0 1 61 30" fill="none" stroke="#4f9fb4" stroke-width="18" stroke-linecap="round"/>
  <path d="M256 180a76 76 0 0 1 38 14" fill="none" stroke="#d95c73" stroke-width="16" stroke-linecap="round"/>
  <circle cx="256" cy="256" r="45" fill="#173a34"/>
  <path d="M256 214c9 18 23 27 42 28-11 21-25 31-42 31-12 0-22-5-30-15 13-7 22-22 30-44Z" fill="#bce6c9"/>
</svg>